<svg xmlns="http://www.w3.org/2000/svg" viewBox="0 9.470000267028809 222.1199951171875 88.73699188232422" data-asc="0.9052734375" width="222.1199951171875" height="88.73699188232422"><defs/><g fill="#000000"><g transform="translate(0, 0)"><path d="M0 45.26L0 9.47L13.43 9.47Q17.53 9.47 20.01 10.56Q22.49 11.65 23.89 13.90Q25.29 16.16 25.29 18.63Q25.29 20.92 24.05 22.95Q22.80 24.98 20.29 26.22Q23.54 27.17 25.28 29.47Q27.03 31.76 27.03 34.89Q27.03 37.40 25.96 39.56Q24.90 41.72 23.34 42.90Q21.78 44.07 19.42 44.67Q17.07 45.26 13.65 45.26L0 45.26M4.74 24.51L12.48 24.51Q15.63 24.51 16.99 24.10Q18.80 23.56 19.71 22.31Q20.63 21.07 20.63 19.19Q20.63 17.41 19.78 16.05Q18.92 14.70 17.33 14.20Q15.75 13.70 11.89 13.70L4.74 13.70L4.74 24.51M4.74 41.04L13.65 41.04Q15.94 41.04 16.87 40.87Q18.51 40.58 19.60 39.89Q20.70 39.21 21.41 37.90Q22.12 36.60 22.12 34.89Q22.12 32.89 21.09 31.41Q20.07 29.93 18.25 29.33Q16.43 28.74 13.01 28.74L4.74 28.74L4.74 41.04ZM33.01 14.53L33.01 9.47L37.40 9.47L37.40 14.53L33.01 14.53M33.01 45.26L33.01 19.34L37.40 19.34L37.40 45.26L33.01 45.26ZM44.04 45.26L44.04 19.34L48.00 19.34L48.00 23.27Q49.51 20.51 50.79 19.63Q52.08 18.75 53.61 18.75Q55.83 18.75 58.13 20.17L56.62 24.24Q55.00 23.29 53.39 23.29Q51.95 23.29 50.81 24.16Q49.66 25.02 49.17 26.56Q48.44 28.91 48.44 31.69L48.44 45.26L44.04 45.26ZM77.66 35.77L81.98 36.33Q81.27 40.80 78.36 43.32Q75.44 45.85 71.19 45.85Q65.87 45.85 62.63 42.37Q59.40 38.89 59.40 32.40Q59.40 28.20 60.79 25.05Q62.18 21.90 65.03 20.32Q67.87 18.75 71.22 18.75Q75.44 18.75 78.13 20.89Q80.81 23.02 81.57 26.95L77.29 27.61Q76.68 25 75.13 23.68Q73.58 22.36 71.39 22.36Q68.07 22.36 65.99 24.74Q63.92 27.12 63.92 32.28Q63.92 37.50 65.92 39.87Q67.92 42.24 71.14 42.24Q73.73 42.24 75.46 40.65Q77.20 39.06 77.66 35.77ZM85.74 45.26L85.74 9.47L90.14 9.47L90.14 22.31Q93.21 18.75 97.90 18.75Q100.78 18.75 102.91 19.89Q105.03 21.02 105.94 23.02Q106.86 25.02 106.86 28.83L106.86 45.26L102.47 45.26L102.47 28.83Q102.47 25.54 101.04 24.04Q99.61 22.53 97.00 22.53Q95.04 22.53 93.32 23.55Q91.60 24.56 90.87 26.29Q90.14 28.03 90.14 31.08L90.14 45.26L85.74 45.26ZM136.21 45.26L136.21 13.70L124.41 13.70L124.41 9.47L152.78 9.47L152.78 13.70L140.94 13.70L140.94 45.26L136.21 45.26ZM155.18 45.26L155.18 19.34L159.13 19.34L159.13 23.27Q160.64 20.51 161.93 19.63Q163.21 18.75 164.75 18.75Q166.97 18.75 169.26 20.17L167.75 24.24Q166.14 23.29 164.53 23.29Q163.09 23.29 161.94 24.16Q160.79 25.02 160.30 26.56Q159.57 28.91 159.57 31.69L159.57 45.26L155.18 45.26ZM189.62 36.91L194.17 37.48Q193.09 41.46 190.19 43.65Q187.28 45.85 182.76 45.85Q177.08 45.85 173.74 42.35Q170.41 38.84 170.41 32.52Q170.41 25.98 173.78 22.36Q177.15 18.75 182.52 18.75Q187.72 18.75 191.02 22.29Q194.31 25.83 194.31 32.25Q194.31 32.64 194.29 33.42L174.95 33.42Q175.20 37.70 177.37 39.97Q179.54 42.24 182.79 42.24Q185.21 42.24 186.91 40.97Q188.62 39.70 189.62 36.91M175.20 29.81L189.67 29.81Q189.38 26.54 188.01 24.90Q185.91 22.36 182.57 22.36Q179.54 22.36 177.48 24.39Q175.42 26.42 175.20 29.81ZM217.43 36.91L221.97 37.48Q220.90 41.46 217.99 43.65Q215.09 45.85 210.57 45.85Q204.88 45.85 201.55 42.35Q198.22 38.84 198.22 32.52Q198.22 25.98 201.59 22.36Q204.96 18.75 210.33 18.75Q215.53 18.75 218.82 22.29Q222.12 25.83 222.12 32.25Q222.12 32.64 222.09 33.42L202.76 33.42Q203.00 37.70 205.18 39.97Q207.35 42.24 210.60 42.24Q213.01 42.24 214.72 40.97Q216.43 39.70 217.43 36.91M203.00 29.81L217.48 29.81Q217.19 26.54 215.82 24.90Q213.72 22.36 210.38 22.36Q207.35 22.36 205.29 24.39Q203.22 26.42 203.00 29.81Z"/></g><g transform="translate(0, 42.4169921875)"><path d="M0 33.76L4.47 33.37Q4.79 36.06 5.94 37.78Q7.10 39.50 9.55 40.56Q11.99 41.63 15.04 41.63Q17.75 41.63 19.82 40.82Q21.90 40.01 22.91 38.61Q23.93 37.21 23.93 35.55Q23.93 33.86 22.95 32.60Q21.97 31.35 19.73 30.49Q18.29 29.93 13.35 28.75Q8.42 27.56 6.45 26.51Q3.88 25.17 2.62 23.18Q1.37 21.19 1.37 18.73Q1.37 16.02 2.91 13.66Q4.44 11.30 7.40 10.08Q10.35 8.86 13.96 8.86Q17.94 8.86 20.98 10.14Q24.02 11.43 25.66 13.92Q27.29 16.41 27.42 19.56L22.88 19.90Q22.51 16.50 20.40 14.77Q18.29 13.04 14.16 13.04Q9.86 13.04 7.90 14.61Q5.93 16.19 5.93 18.41Q5.93 20.34 7.32 21.58Q8.69 22.83 14.47 24.13Q20.24 25.44 22.39 26.42Q25.51 27.86 27.00 30.07Q28.49 32.28 28.49 35.16Q28.49 38.01 26.86 40.54Q25.22 43.07 22.16 44.47Q19.09 45.87 15.26 45.87Q10.40 45.87 7.12 44.46Q3.83 43.04 1.97 40.20Q0.10 37.35 0 33.76ZM43.99 41.33L44.63 45.21Q42.77 45.61 41.31 45.61Q38.92 45.61 37.60 44.85Q36.28 44.09 35.74 42.86Q35.21 41.63 35.21 37.67L35.21 22.75L31.98 22.75L31.98 19.34L35.21 19.34L35.21 12.92L39.58 10.28L39.58 19.34L43.99 19.34L43.99 22.75L39.58 22.75L39.58 37.92Q39.58 39.79 39.81 40.33Q40.04 40.87 40.56 41.19Q41.09 41.50 42.07 41.50Q42.80 41.50 43.99 41.33ZM46.66 32.30Q46.66 25.10 50.66 21.63Q54.00 18.75 58.81 18.75Q64.16 18.75 67.55 22.25Q70.95 25.76 70.95 31.93Q70.95 36.94 69.45 39.81Q67.94 42.68 65.08 44.26Q62.21 45.85 58.81 45.85Q53.37 45.85 50.01 42.36Q46.66 38.87 46.66 32.30M51.17 32.30Q51.17 37.28 53.34 39.76Q55.52 42.24 58.81 42.24Q62.08 42.24 64.26 39.75Q66.43 37.26 66.43 32.15Q66.43 27.34 64.25 24.87Q62.06 22.39 58.81 22.39Q55.52 22.39 53.34 24.85Q51.17 27.32 51.17 32.30ZM76.05 45.26L76.05 19.34L80.00 19.34L80.00 23.27Q81.52 20.51 82.80 19.63Q84.08 18.75 85.62 18.75Q87.84 18.75 90.14 20.17L88.62 24.24Q87.01 23.29 85.40 23.29Q83.96 23.29 82.81 24.16Q81.67 25.02 81.18 26.56Q80.44 28.91 80.44 31.69L80.44 45.26L76.05 45.26ZM109.67 42.07Q107.23 44.14 104.97 45.00Q102.71 45.85 100.12 45.85Q95.85 45.85 93.55 43.76Q91.26 41.67 91.26 38.43Q91.26 36.52 92.13 34.95Q92.99 33.37 94.40 32.42Q95.80 31.47 97.56 30.98Q98.85 30.64 101.46 30.32Q106.79 29.69 109.30 28.81Q109.33 27.91 109.33 27.66Q109.33 24.98 108.08 23.88Q106.40 22.39 103.08 22.39Q99.98 22.39 98.50 23.47Q97.02 24.56 96.31 27.32L92.02 26.73Q92.60 23.97 93.95 22.28Q95.29 20.58 97.83 19.67Q100.37 18.75 103.71 18.75Q107.03 18.75 109.11 19.53Q111.18 20.31 112.16 21.50Q113.13 22.68 113.53 24.49Q113.75 25.61 113.75 28.54L113.75 34.40Q113.75 40.53 114.03 42.15Q114.31 43.77 115.14 45.26L110.55 45.26Q109.86 43.90 109.67 42.07M109.30 32.25Q106.91 33.23 102.12 33.91Q99.41 34.30 98.29 34.79Q97.17 35.28 96.56 36.22Q95.95 37.16 95.95 38.31Q95.95 40.06 97.28 41.24Q98.61 42.41 101.17 42.41Q103.71 42.41 105.69 41.30Q107.67 40.19 108.59 38.26Q109.30 36.77 109.30 33.86L109.30 32.25ZM119.75 47.41L124.02 48.05Q124.29 50.02 125.51 50.93Q127.15 52.15 129.98 52.15Q133.03 52.15 134.69 50.93Q136.35 49.71 136.94 47.51Q137.28 46.17 137.26 41.87Q134.38 45.26 130.08 45.26Q124.73 45.26 121.80 41.41Q118.87 37.55 118.87 32.15Q118.87 28.44 120.21 25.31Q121.56 22.17 124.11 20.46Q126.66 18.75 130.10 18.75Q134.69 18.75 137.67 22.46L137.67 19.34L141.72 19.34L141.72 41.75Q141.72 47.80 140.49 50.33Q139.26 52.86 136.58 54.32Q133.91 55.79 130.00 55.79Q125.37 55.79 122.51 53.70Q119.65 51.61 119.75 47.41M123.39 31.84Q123.39 36.94 125.42 39.28Q127.44 41.63 130.49 41.63Q133.52 41.63 135.57 39.29Q137.62 36.96 137.62 31.98Q137.62 27.22 135.51 24.80Q133.40 22.39 130.42 22.39Q127.49 22.39 125.44 24.77Q123.39 27.15 123.39 31.84ZM166.11 36.91L170.65 37.48Q169.58 41.46 166.67 43.65Q163.77 45.85 159.25 45.85Q153.56 45.85 150.23 42.35Q146.90 38.84 146.90 32.52Q146.90 25.98 150.27 22.36Q153.64 18.75 159.01 18.75Q164.21 18.75 167.50 22.29Q170.80 25.83 170.80 32.25Q170.80 32.64 170.78 33.42L151.44 33.42Q151.68 37.70 153.86 39.97Q156.03 42.24 159.28 42.24Q161.69 42.24 163.40 40.97Q165.11 39.70 166.11 36.91M151.68 29.81L166.16 29.81Q165.87 26.54 164.50 24.90Q162.40 22.36 159.06 22.36Q156.03 22.36 153.97 24.39Q151.90 26.42 151.68 29.81Z"/></g></g></svg>